<svg xmlns="http://www.w3.org/2000/svg" fill-rule="evenodd" viewBox="0 0 100 100">
    <path d="M49.998 6.566c-16.658 0-30.211 13.555-30.211 30.217a30.123 30.123 0 0 0 4.47 15.768c.031.081.069.161.115.237l23.854 39.914c.269.449.751.726 1.274.73h.013c.518 0 1-.268 1.274-.708L75.612 52.81c.054-.086.098-.177.132-.271a30.102 30.102 0 0 0 4.471-15.757c0-16.661-13.556-30.216-30.217-30.216zm23.033 44.655c-.055.088-.1.18-.134.275L49.539 89.052l-22.435-37.54a1.501 1.501 0 0 0-.141-.291 27.137 27.137 0 0 1-4.176-14.438c0-15.007 12.207-27.217 27.211-27.217 15.008 0 27.217 12.209 27.217 27.217a27.103 27.103 0 0 1-4.184 14.438z"/>
    <path d="M58.047 25.202h-.002c-2.552 0-4.95.994-6.753 2.799a9.598 9.598 0 0 0-1.297 1.612 9.548 9.548 0 0 0-8.043-4.412c-5.268 0-9.553 4.286-9.553 9.553 0 2.028.655 3.984 1.928 5.704l14.5 18.112c.285.355.715.562 1.171.562h.001c.456 0 .887-.208 1.171-.564l14.811-18.562c.031-.04.061-.08.088-.123a9.454 9.454 0 0 0 1.53-5.128c.001-5.267-4.285-9.553-9.552-9.553zm5.54 12.995L49.996 55.23 36.703 38.629c-.854-1.154-1.305-2.494-1.305-3.875a6.56 6.56 0 0 1 6.553-6.553c3.61 0 6.547 2.94 6.547 6.553a1.5 1.5 0 1 0 3 0c0-1.75.681-3.396 1.917-4.633a6.498 6.498 0 0 1 4.63-1.919h.002a6.56 6.56 0 0 1 6.553 6.553c0 1.201-.35 2.39-1.013 3.442z"/>
</svg>
