<svg xmlns="http://www.w3.org/2000/svg" fill-rule="evenodd" viewBox="0 0 100 100">
    <path d="M81.837 19.74H60.815a6.573 6.573 0 0 0 .778-3.061 6.647 6.647 0 0 0-6.641-6.639 6.637 6.637 0 0 0-5.146 2.442 6.63 6.63 0 0 0-5.142-2.442c-3.662 0-6.641 2.979-6.641 6.639 0 1.07.258 2.105.765 3.061h-20.62c-3.208 0-5.818 2.934-5.818 6.541V88.46a1.5 1.5 0 0 0 1.5 1.5h9.538a1.5 1.5 0 0 0 1.5-1.5V65.779c16.029-.904 22.393-12.036 24.875-21.828 3.091 13.113 11.814 20.713 25.349 21.8V88.46a1.5 1.5 0 0 0 1.5 1.5h9.539a1.5 1.5 0 0 0 1.5-1.5V26.281c0-3.607-2.608-6.541-5.814-6.541zm-37.173-6.7a3.644 3.644 0 0 1 3.641 3.639 1.5 1.5 0 1 0 3 0 3.644 3.644 0 0 1 7.287 0 3.62 3.62 0 0 1-.544 1.891l-8.244 10.328-8.057-10.066a3.577 3.577 0 0 1-.725-2.152 3.645 3.645 0 0 1 3.642-3.64zM15.35 86.96V26.281c0-1.952 1.264-3.541 2.818-3.541h22.867l5.791 7.237-3.081-.004-1.477.088-15.827-.046c-2.554 0-4.554 2.57-4.554 5.85V86.96H15.35zm9.538-24.194v-26.9c0-1.631.82-2.85 1.549-2.85l15.914.043 1.479-.088 4.442.007c-.636 24.613-15.155 29.19-23.384 29.788zM51.51 32.982l22.053.033c.731 0 1.549 1.219 1.549 2.85v26.873c-19.075-1.647-23.438-16.81-23.602-29.756zM84.651 86.96h-6.539V35.865c0-3.28-1.998-5.85-4.547-5.85l-20.791-.03 5.784-7.245h23.279c1.552 0 2.814 1.588 2.814 3.541V86.96z"/>
</svg>
