<svg xmlns="http://www.w3.org/2000/svg" fill-rule="evenodd" viewBox="0 0 100 100">
    <path d="m45.145 17.252-15.779-4.578a1.498 1.498 0 0 0-1.858 1.022l-9.49 32.725a9.636 9.636 0 0 0 .818 7.385 9.637 9.637 0 0 0 4.404 4.111L16.322 81.77l-6.345-1.841a1.5 1.5 0 1 0-.836 2.88l7.771 2.255.01.004.008.001 7.77 2.255a1.5 1.5 0 0 0 .836-2.88l-6.334-1.838 6.918-23.85c.414.054.83.089 1.244.089a9.655 9.655 0 0 0 4.668-1.208 9.646 9.646 0 0 0 4.644-5.805v.001l9.492-32.722a1.5 1.5 0 0 0-1.023-1.859zM33.794 50.996s0 .001 0 0a6.668 6.668 0 0 1-3.209 4.012 6.668 6.668 0 0 1-5.101.567l-.003-.001-.004-.001a6.667 6.667 0 0 1-4.012-3.213 6.66 6.66 0 0 1-.566-5.102l2.083-7.183h13.981l-3.169 10.921zm4.039-13.921H23.851l6.119-21.103 12.898 3.742-5.035 17.361zm54.044 43.544a1.502 1.502 0 0 0-1.876-.991l-6.311 1.95-7.332-23.733c4.225-2.066 6.451-6.954 5.024-11.578h-.001L71.318 13.712a1.5 1.5 0 0 0-1.876-.99l-15.696 4.851a1.501 1.501 0 0 0-.989 1.876l10.062 32.553a9.649 9.649 0 0 0 4.743 5.719 9.652 9.652 0 0 0 4.521 1.129c.47 0 .942-.037 1.412-.107l7.328 23.721-6.298 1.946a1.5 1.5 0 0 0 .885 2.868l15.477-4.782a1.503 1.503 0 0 0 .99-1.877zM68.896 16.031l3.783 12.239H58.623l-2.557-8.273 12.83-3.966zm.067 39.038a6.664 6.664 0 0 1-3.278-3.953L59.55 31.27h14.055l4.909 15.883c1.09 3.528-.897 7.289-4.428 8.389l-.01.002-.01.004a6.654 6.654 0 0 1-5.103-.479z"/>
</svg>
